<?xml version="1.0" standalone="no"?>
<!DOCTYPE svg PUBLIC "-//W3C//DTD SVG 20010904//EN"
 "http://www.w3.org/TR/2001/REC-SVG-20010904/DTD/svg10.dtd">
<svg version="1.0" xmlns="http://www.w3.org/2000/svg"
 width="250.000000pt" height="250.000000pt" viewBox="0 0 250.000000 250.000000"
 preserveAspectRatio="xMidYMid meet">

<g transform="translate(0.000000,250.000000) scale(0.100000,-0.100000)"
fill="#000000" stroke="none">
<path d="M1150 1615 c0 -3 21 -32 47 -65 42 -55 49 -60 85 -60 35 0 38 -2 33
-22 -25 -108 -105 -482 -105 -493 0 -20 155 -22 162 -2 3 6 29 126 59 264 49
232 56 253 75 253 17 0 20 -5 16 -30 l-4 -30 81 0 c75 0 81 1 86 23 26 112 35
153 35 160 0 4 -128 7 -285 7 -157 0 -285 -2 -285 -5z"/>
<path d="M865 1398 c-5 -19 -55 -252 -55 -260 0 -5 97 -76 232 -169 5 -3 6
-24 2 -47 l-7 -42 -59 0 -60 0 6 34 c6 33 5 35 -59 75 -37 22 -69 41 -73 41
-4 0 -19 -55 -34 -122 -37 -169 -51 -159 211 -156 l205 3 18 80 c22 99 22 105
2 105 -13 0 -15 6 -10 33 22 108 29 94 -88 175 -98 68 -104 74 -97 100 7 25
12 27 65 30 58 3 58 3 52 -22 -5 -22 0 -30 46 -59 29 -19 56 -32 59 -28 4 3
17 53 29 111 13 58 25 111 27 118 4 9 -40 12 -201 12 -157 0 -208 -3 -211 -12z"/>
<path d="M1460 1243 c-18 -87 -35 -162 -36 -168 -2 -5 30 -32 71 -60 41 -27
73 -55 70 -62 -2 -6 -7 -28 -11 -47 l-6 -36 -64 0 -64 0 6 28 c3 15 7 32 9 39
6 18 -26 25 -39 9 -7 -9 -32 -16 -66 -18 l-54 -3 -14 -68 c-10 -53 -11 -72 -1
-83 9 -11 50 -14 215 -14 203 0 204 0 209 23 27 121 55 251 55 257 0 5 -122
95 -233 171 -4 3 -5 22 -2 43 l7 36 64 0 64 0 -6 -29 c-6 -27 -2 -33 50 -66
31 -19 62 -38 69 -41 15 -5 62 201 52 229 -6 15 -24 17 -159 17 l-152 0 -34
-157z"/>
<path d="M1905 950 c-10 -11 -13 -20 -7 -20 6 0 16 9 22 20 6 11 9 20 7 20 -2
0 -12 -9 -22 -20z"/>
<path d="M1917 923 c-11 -13 -17 -27 -14 -30 3 -2 13 7 23 21 22 34 15 42 -9
9z"/>
<path d="M1770 851 c0 -12 25 -38 51 -51 31 -17 22 3 -16 33 -19 15 -35 23
-35 18z"/>
<path d="M1760 816 c0 -17 44 -50 60 -44 5 1 -6 16 -25 31 -26 20 -35 24 -35
13z"/>
<path d="M871 663 c-6 -10 -11 -12 -11 -5 0 6 -11 12 -25 12 -22 0 -25 -4 -25
-35 0 -31 3 -35 25 -35 28 0 35 20 8 21 -13 0 -14 2 -4 6 8 3 20 -2 27 -12 11
-15 18 -16 38 -7 21 9 23 15 17 39 -9 33 -35 42 -50 16z"/>
<path d="M711 638 c5 -18 9 -34 9 -35 0 -9 29 -1 33 10 4 10 6 10 6 0 1 -7 8
-13 16 -13 8 0 15 6 15 13 0 6 3 22 6 35 4 13 2 22 -5 22 -6 0 -11 -8 -11 -17
-1 -17 -1 -17 -11 0 -5 9 -14 17 -19 17 -5 0 -11 -8 -13 -17 -4 -17 -5 -17 -6
0 0 9 -7 17 -15 17 -12 0 -13 -7 -5 -32z"/>
<path d="M980 640 c0 -27 3 -31 23 -28 31 4 31 52 0 56 -20 3 -23 -1 -23 -28z
m38 3 c-5 -25 -28 -28 -28 -4 0 12 6 21 16 21 9 0 14 -7 12 -17z"/>
<path d="M1050 635 c0 -35 20 -49 36 -23 5 8 2 9 -9 5 -10 -3 -17 -2 -17 3 0
5 8 11 18 13 16 4 16 5 0 6 -10 0 -18 5 -18 10 0 5 8 12 18 14 13 4 11 5 -5 6
-20 1 -23 -4 -23 -34z"/>
<path d="M1115 645 c6 -30 21 -53 29 -44 2 2 7 20 10 39 6 33 6 34 -7 12 l-13
-23 -12 23 c-12 22 -12 21 -7 -7z"/>
<path d="M1180 635 c0 -35 20 -49 36 -23 5 8 2 9 -9 5 -10 -3 -17 -2 -17 3 0
5 8 11 18 13 16 4 16 5 0 6 -10 0 -18 5 -18 10 0 5 8 12 18 14 13 4 11 5 -5 6
-20 1 -23 -4 -23 -34z"/>
<path d="M1230 640 c0 -26 3 -30 28 -29 16 1 20 3 10 6 -11 3 -18 14 -18 29 0
13 -4 24 -10 24 -5 0 -10 -13 -10 -30z"/>
<path d="M1300 655 c-18 -21 -5 -47 22 -43 31 4 40 58 10 58 -11 0 -25 -7 -32
-15z m36 -6 c10 -17 -13 -36 -27 -22 -12 12 -4 33 11 33 5 0 12 -5 16 -11z"/>
<path d="M1370 639 c0 -30 1 -31 23 -16 12 8 22 21 22 28 0 8 -10 15 -22 17
-20 3 -23 -1 -23 -29z m32 6 c0 -5 -5 -11 -11 -13 -6 -2 -11 4 -11 13 0 9 5
15 11 13 6 -2 11 -8 11 -13z"/>
<path d="M1430 633 c1 -36 2 -37 15 -19 9 12 15 15 15 7 0 -10 3 -11 14 -2 11
9 15 9 19 -1 3 -7 6 2 6 20 1 34 -13 43 -24 15 -6 -17 -7 -17 -16 0 -16 28
-29 19 -29 -20z"/>
<path d="M1510 635 c0 -28 4 -35 19 -35 11 0 23 5 27 12 5 8 2 9 -9 5 -10 -3
-17 -2 -17 3 0 5 8 11 18 13 16 4 16 5 0 6 -10 0 -18 5 -18 10 0 5 8 12 18 14
10 3 6 5 -10 6 -25 1 -28 -2 -28 -34z"/>
<path d="M1571 633 c1 -32 2 -34 8 -13 l7 24 15 -22 c19 -26 29 -19 29 20 0
30 -20 40 -20 11 -1 -17 -1 -17 -14 0 -20 26 -26 21 -25 -20z"/>
<path d="M1640 659 c0 -5 5 -7 10 -4 6 4 10 -5 10 -19 0 -14 5 -26 10 -26 6 0
10 11 10 24 0 13 6 27 13 29 6 3 -3 6 -20 6 -18 1 -33 -4 -33 -10z"/>
</g>
</svg>
